<?xml version="1.0" standalone="no"?>
<!DOCTYPE svg PUBLIC "-//W3C//DTD SVG 20010904//EN"
 "http://www.w3.org/TR/2001/REC-SVG-20010904/DTD/svg10.dtd">
<svg version="1.0" xmlns="http://www.w3.org/2000/svg"
 width="1920.000000pt" height="1536.000000pt" viewBox="0 0 1920.000000 1536.000000"
 preserveAspectRatio="xMidYMid meet">

<g transform="translate(0.000000,1536.000000) scale(0.100000,-0.100000)"
fill="#000000" stroke="none">
<path d="M10825 10256 c-12 -19 -27 -24 -73 -29 -101 -9 -187 -69 -240 -170
-26 -51 -27 -56 -30 -252 -3 -183 -5 -200 -23 -213 -10 -7 -19 -19 -19 -26 0
-8 -16 -17 -37 -21 -120 -22 -231 -81 -253 -135 -12 -30 -14 -30 -85 -30 -121
0 -213 -40 -264 -115 -13 -19 -88 -186 -166 -372 l-143 -338 -179 -36 c-521
-106 -970 -275 -1288 -484 l-89 -59 -246 -12 c-135 -7 -309 -18 -387 -24 -78
-7 -157 -10 -175 -6 -46 9 -98 45 -228 161 -189 168 -281 228 -420 275 -79 26
-288 42 -275 20 4 -7 33 -47 63 -89 104 -144 168 -312 160 -420 l-3 -45 -160
-32 c-223 -44 -313 -71 -448 -132 -42 -19 -80 -33 -83 -30 -3 3 2 34 11 69 21
79 17 330 -6 393 -31 87 -76 66 -99 -46 -17 -85 -14 -278 5 -351 18 -70 18
-67 1 -67 -32 0 -46 -30 -46 -99 0 -53 4 -72 18 -84 10 -10 24 -17 30 -17 15
0 15 4 -4 -72 -22 -82 -21 -290 0 -367 27 -96 64 -106 94 -25 23 62 28 314 8
394 -9 34 -14 65 -11 68 2 3 35 -9 73 -26 134 -62 302 -109 559 -156 133 -24
436 -67 576 -81 l67 -7 0 -72 c0 -101 23 -195 71 -294 78 -161 250 -301 425
-346 118 -30 116 -31 257 140 144 176 273 237 497 238 134 0 219 -21 315 -79
75 -46 106 -75 211 -201 97 -119 138 -144 229 -144 93 0 132 25 236 151 49 59
109 124 132 144 59 51 169 102 250 117 53 10 67 16 63 28 -64 182 -76 226 -86
315 -30 279 60 550 249 748 98 102 176 160 286 213 157 75 224 89 420 88 156
0 177 -2 258 -27 534 -164 822 -713 643 -1227 -18 -52 -36 -103 -41 -112 -4
-12 -2 -19 6 -22 8 -2 41 -12 74 -22 98 -30 194 -101 289 -217 46 -56 95 -112
108 -124 57 -53 167 -69 243 -34 40 18 75 53 190 188 33 39 84 88 113 109 30
22 60 44 67 49 12 8 11 23 -5 89 -10 43 -22 109 -26 148 -6 61 -10 70 -33 83
-14 7 -39 27 -55 44 -24 25 -30 41 -33 88 -5 69 17 112 72 144 37 22 38 23 55
142 7 43 20 107 29 142 l18 63 -25 32 c-71 91 -16 232 96 247 35 5 40 11 91
98 30 51 54 97 55 102 2 13 -199 98 -386 162 -188 64 -464 137 -637 167 -84
15 -105 23 -112 39 -5 11 -50 162 -100 335 -50 173 -100 330 -111 347 -30 50
-97 102 -152 118 -30 9 -91 15 -153 15 -89 0 -103 2 -103 17 0 9 -18 33 -39
54 -42 39 -120 73 -208 91 -32 6 -53 16 -53 24 0 7 -9 19 -21 27 -19 14 -20
22 -17 200 3 182 3 186 28 213 26 28 77 54 107 54 10 0 23 -10 28 -22 9 -20
19 -23 75 -26 86 -4 90 3 90 134 0 126 -6 134 -90 134 -52 0 -62 -3 -75 -24z"/>
<path d="M12791 8060 l-52 -91 27 -54 c29 -61 28 -97 -6 -152 -19 -31 -84 -73
-114 -73 -17 0 -30 -38 -50 -155 -27 -153 -28 -150 5 -174 45 -33 62 -75 57
-139 -4 -49 -9 -59 -46 -93 l-41 -38 9 -58 c15 -106 31 -189 39 -201 6 -10 27
-10 98 -1 68 8 111 8 176 0 152 -20 238 -60 338 -158 l56 -54 70 74 c82 87
117 136 167 236 203 402 -5 835 -558 1162 -55 33 -105 59 -111 59 -6 0 -35
-41 -64 -90z"/>
<path d="M10385 8103 c-184 -39 -347 -136 -469 -279 -63 -73 -131 -190 -162
-276 -46 -130 -60 -334 -30 -460 21 -90 72 -222 94 -240 9 -9 41 -18 70 -21
l53 -6 -21 29 c-11 16 -34 57 -50 92 -116 249 -88 547 74 772 267 371 804 422
1137 109 160 -151 241 -338 241 -558 0 -147 -32 -264 -105 -389 l-28 -49 32 7
c17 3 44 6 59 6 24 0 31 8 58 68 56 120 75 211 75 357 0 101 -5 148 -22 210
-72 269 -272 495 -522 589 -148 55 -337 71 -484 39z"/>
<path d="M6596 6705 c-111 -28 -184 -85 -315 -246 -85 -105 -149 -147 -248
-164 l-43 -7 0 -80 0 -81 63 6 c79 7 165 39 219 80 23 18 70 66 106 107 153
179 194 210 306 231 70 13 164 -3 223 -37 23 -13 73 -59 110 -101 146 -165
186 -203 245 -232 82 -41 155 -54 273 -49 174 9 252 54 394 227 125 152 193
193 327 194 123 1 191 -34 291 -153 200 -236 280 -278 502 -267 164 8 260 56
365 186 108 133 146 170 214 203 57 28 74 32 148 32 75 0 90 -3 151 -34 58
-30 80 -51 168 -155 117 -139 188 -193 288 -218 122 -31 284 -19 377 28 68 35
108 70 207 185 104 122 114 131 169 159 62 33 143 44 216 31 108 -20 150 -50
273 -199 139 -166 217 -210 390 -219 112 -5 184 7 261 42 64 30 117 77 208
186 119 143 158 170 264 190 77 14 168 -1 228 -36 23 -13 71 -56 105 -95 147
-164 192 -208 247 -237 59 -31 139 -52 197 -52 l35 0 0 79 0 78 -57 12 c-80
16 -152 60 -209 128 -129 154 -170 196 -227 229 -84 49 -169 67 -287 61 -168
-9 -248 -49 -358 -178 -183 -215 -227 -244 -372 -243 -135 0 -198 36 -310 175
-165 204 -269 257 -480 246 -174 -9 -256 -55 -395 -222 -109 -130 -141 -157
-226 -186 -51 -17 -78 -20 -133 -16 -123 11 -192 60 -346 250 -58 72 -117 116
-202 150 -73 29 -277 31 -356 4 -87 -31 -162 -88 -241 -187 -106 -130 -160
-176 -238 -200 -78 -24 -120 -25 -196 -5 -96 25 -140 60 -264 216 -68 83 -103
114 -178 152 -128 64 -327 63 -460 -3 -67 -33 -121 -81 -200 -179 -126 -157
-189 -194 -325 -195 -67 0 -95 4 -133 21 -70 32 -92 52 -197 175 -152 178
-225 218 -410 224 -70 2 -125 -1 -164 -11z"/>
<path d="M10340 6510 c49 -68 110 -100 193 -100 68 0 116 20 162 66 20 20 35
37 33 39 -2 2 -25 -1 -53 -5 -81 -14 -174 -11 -267 8 l-86 18 18 -26z"/>
<path d="M6593 6185 c-110 -30 -185 -86 -291 -218 -30 -38 -71 -84 -91 -103
-44 -41 -126 -84 -160 -84 -67 0 -71 -5 -71 -93 l0 -80 73 6 c137 10 234 66
332 190 89 111 145 166 200 195 45 24 60 27 155 27 90 0 111 -3 148 -23 60
-32 112 -81 189 -179 81 -105 162 -166 255 -194 59 -18 88 -21 192 -17 116 4
125 6 196 40 86 42 108 61 207 179 135 163 196 199 327 199 138 0 200 -36 325
-189 149 -182 220 -222 412 -229 214 -8 301 35 452 218 132 161 196 200 331
200 130 0 206 -42 311 -175 153 -194 248 -245 451 -245 193 0 280 46 430 226
135 162 190 194 334 194 62 0 85 -5 135 -29 57 -27 131 -94 184 -166 47 -64
138 -148 186 -173 75 -38 140 -52 245 -52 186 0 297 52 407 194 150 193 245
245 405 224 106 -13 165 -57 284 -204 116 -144 207 -200 346 -211 l68 -6 0 81
0 81 -37 6 c-108 18 -175 64 -276 190 -144 180 -245 235 -428 235 -102 0 -172
-14 -245 -50 -60 -29 -84 -52 -252 -238 -94 -105 -150 -134 -260 -135 -143 -2
-204 34 -339 197 -91 110 -135 148 -205 181 -79 37 -150 48 -263 42 -168 -9
-255 -56 -375 -202 -95 -116 -146 -165 -204 -190 -123 -56 -276 -33 -370 53
-15 15 -63 70 -106 122 -84 104 -118 133 -195 173 -73 37 -160 51 -273 44
-169 -9 -256 -59 -390 -224 -100 -124 -114 -136 -187 -169 -50 -23 -74 -28
-141 -28 -72 0 -89 4 -148 33 -56 27 -79 47 -134 114 -185 226 -274 277 -481
277 -123 0 -228 -35 -313 -103 -21 -17 -67 -67 -102 -111 -115 -144 -171 -186
-276 -206 -69 -14 -141 -5 -205 25 -61 28 -90 55 -181 165 -123 147 -194 197
-314 220 -74 14 -205 11 -267 -5z"/>
<path d="M6595 5666 c-107 -27 -179 -80 -287 -211 -120 -146 -170 -181 -273
-194 l-50 -6 0 -85 0 -85 50 3 c140 9 250 69 346 189 104 129 168 188 233 212
104 39 239 23 323 -38 23 -16 77 -75 122 -129 151 -187 244 -236 446 -236 179
1 287 56 415 215 128 158 189 199 307 207 142 9 228 -35 337 -172 133 -168
221 -226 374 -246 135 -18 264 7 358 71 42 29 120 109 189 195 91 116 179 159
310 152 124 -7 194 -53 318 -209 47 -60 116 -125 158 -151 126 -76 344 -85
485 -19 76 36 133 87 226 203 107 135 184 178 314 178 72 0 147 -24 200 -65
19 -15 75 -75 124 -134 127 -154 201 -200 357 -222 51 -7 97 -7 153 1 151 21
226 69 360 231 50 60 107 120 128 134 114 75 282 73 389 -4 23 -16 78 -75 123
-131 95 -117 158 -170 236 -199 64 -25 185 -44 197 -32 4 4 7 43 5 87 l-3 79
-52 6 c-83 10 -136 43 -216 131 -164 183 -191 208 -249 237 -82 41 -155 54
-273 49 -173 -9 -256 -55 -394 -219 -138 -166 -193 -199 -329 -201 -141 -1
-206 40 -351 224 -115 145 -227 198 -414 198 -186 0 -290 -55 -425 -224 -132
-165 -188 -197 -340 -197 -64 0 -85 5 -139 31 -63 31 -80 48 -215 210 -113
136 -204 175 -403 174 -110 0 -138 -3 -185 -22 -79 -32 -141 -81 -212 -169
-107 -132 -138 -161 -201 -193 -53 -27 -70 -30 -146 -30 -144 1 -200 32 -320
179 -97 119 -148 166 -215 197 -76 35 -149 47 -261 42 -179 -9 -264 -56 -395
-218 -92 -114 -126 -145 -198 -177 -64 -30 -177 -33 -256 -7 -54 18 -112 71
-262 240 -78 86 -136 124 -229 149 -70 18 -219 19 -290 1z"/>
</g>
</svg>
